<?xml version="1.0" encoding="utf-8"?>
<!-- Generator: Adobe Illustrator 27.5.0, SVG Export Plug-In . SVG Version: 6.00 Build 0)  -->
<svg version="1.1" id="Layer_1" xmlns="http://www.w3.org/2000/svg" xmlns:xlink="http://www.w3.org/1999/xlink" x="0px" y="0px"
	 viewBox="0 0 450 450" style="enable-background:new 0 0 450 450;" xml:space="preserve">
<g id="calculator_2_">
	<g>
		<g id="calculator_1_">
			<g id="calculator">
				<path style="fill:#AA9383;" d="M288.431,334.852l-2.376-150.561c-0.152-9.642-6.943-21.532-15.169-26.561l-80.772-49.376
					c-4.487-2.741-8.501-2.861-11.233-0.849v-0.014l-6.099,3.76l2.569,3.331c-0.078,0.678-0.131,1.377-0.131,2.124V274.03
					c0,9.642,6.889,21.149,15.388,25.704l82.713,44.328c1.086,0.579,2.143,1.015,3.162,1.323l1.127,3.413l6.09-3.808
					c0.324-0.171,0.632-0.362,0.927-0.58l0.188-0.115l-0.015-0.008C287.119,342.486,288.502,339.251,288.431,334.852z"/>
				<path style="fill:#D8CAC0;" d="M281.531,339.128c0.175,9.635-6.597,13.754-15.082,9.181l-82.71-44.306
					c-0.384-0.208-0.769-0.419-1.117-0.661c-7.996-4.923-14.281-15.817-14.281-25.037V120.986c0-9.669,6.669-13.406,14.874-8.381
					l80.788,49.404c8.205,5.029,15.014,16.898,15.154,26.533L281.531,339.128z"/>
			</g>
			<path style="fill:#9C5647;" d="M266.972,181.891l-82.644-47.635c-1.415-0.815-2.69-0.859-3.606-0.293l-0.003-0.007l-1.548,1.057
				l0.455,0.368c-0.194,0.505-0.317,1.084-0.317,1.773v16.093c0,3.184,2.262,7.088,5.026,8.674l82.63,47.372
				c0.716,0.409,1.395,0.62,2.012,0.658l0.143,0.627l1.319-0.924c0.099-0.051,0.183-0.127,0.273-0.191l0.266-0.187l-0.015-0.017
				c0.636-0.607,1.028-1.575,1.028-2.878v-15.807C271.991,187.39,269.732,183.483,266.972,181.891z"/>
			<path style="fill:#663535;" d="M182.913,135.221c-2.76-1.593-5.019-0.286-5.019,2.901v16.089c0,3.185,2.26,7.089,5.026,8.674
				l82.63,47.373c2.763,1.585,5.026,0.276,5.026-2.913v-15.803c0-3.188-2.259-7.096-5.019-8.688L182.913,135.221z"/>
			<g>
				<polygon style="fill:#9C5647;" points="180.845,175.863 179.398,176.95 180.845,177.768 180.845,196.807 195.377,204.735 
					195.377,206.609 196.826,205.526 196.826,184.915 				"/>
				<polygon style="fill:#663535;" points="179.398,176.95 179.398,197.895 195.377,206.609 195.377,185.999 				"/>
			</g>
			<g>
				<polygon style="fill:#9C5647;" points="205.148,189.521 203.701,190.606 205.148,191.427 205.148,210.466 219.682,218.39 
					219.682,220.265 221.129,219.181 221.129,198.57 				"/>
				<polygon style="fill:#663535;" points="203.701,190.606 203.701,211.55 219.682,220.265 219.682,199.658 				"/>
			</g>
			<g>
				<polygon style="fill:#9C5647;" points="229.767,203.548 228.32,204.632 229.767,205.454 229.767,224.493 244.299,232.416 
					244.299,234.292 245.748,233.208 245.748,212.596 				"/>
				<polygon style="fill:#663535;" points="228.32,204.632 228.32,225.577 244.299,234.292 244.299,213.684 				"/>
			</g>
			<g>
				<polygon style="fill:#9C5647;" points="253.63,216.385 252.181,217.473 253.63,218.291 253.63,237.33 268.162,245.257 
					268.162,247.132 269.609,246.048 269.609,225.438 				"/>
				<polygon style="fill:#EE6251;" points="252.181,217.473 252.181,238.417 268.162,247.132 268.162,226.521 				"/>
			</g>
			<g>
				<polygon style="fill:#9C5647;" points="180.845,207.684 179.398,208.768 180.845,209.59 180.845,228.629 195.377,236.556 
					195.377,238.431 196.826,237.344 196.826,216.733 				"/>
				<polygon style="fill:#663535;" points="179.398,208.768 179.398,229.712 195.377,238.431 195.377,217.82 				"/>
			</g>
			<g>
				<polygon style="fill:#9C5647;" points="205.148,220.466 203.701,221.554 205.148,222.372 205.148,241.411 219.682,249.337 
					219.682,251.214 221.129,250.128 221.129,229.518 				"/>
				<polygon style="fill:#663535;" points="203.701,221.554 203.701,242.499 219.682,251.214 219.682,230.602 				"/>
			</g>
			<g>
				<polygon style="fill:#9C5647;" points="229.767,233.62 228.32,234.708 229.767,235.526 229.767,254.565 244.299,262.492 
					244.299,264.367 245.748,263.283 245.748,242.672 				"/>
				<polygon style="fill:#663535;" points="228.32,234.708 228.32,255.652 244.299,264.367 244.299,243.757 				"/>
			</g>
			<g>
				<polygon style="fill:#9C5647;" points="253.63,246.46 252.181,247.548 253.63,248.366 253.63,267.405 268.162,275.332 
					268.162,277.208 269.609,276.12 269.609,255.51 				"/>
				<polygon style="fill:#EE6251;" points="252.181,247.548 252.181,268.489 268.162,277.208 268.162,256.597 				"/>
			</g>
			<g>
				<polygon style="fill:#9C5647;" points="180.845,236.968 179.398,238.056 180.845,238.874 180.845,257.913 195.377,265.84 
					195.377,267.716 196.826,266.628 196.826,246.017 				"/>
				<polygon style="fill:#663535;" points="179.398,238.056 179.398,258.997 195.377,267.716 195.377,247.105 				"/>
			</g>
			<g>
				<polygon style="fill:#9C5647;" points="205.148,249.75 203.701,250.838 205.148,251.656 205.148,270.695 219.682,278.622 
					219.682,280.498 221.129,279.413 221.129,258.802 				"/>
				<polygon style="fill:#663535;" points="203.701,250.838 203.701,271.783 219.682,280.498 219.682,259.887 				"/>
			</g>
			<g>
				<polygon style="fill:#9C5647;" points="229.767,262.904 228.32,263.992 229.767,264.814 229.767,283.849 244.299,291.776 
					244.299,293.652 245.748,292.567 245.748,271.957 				"/>
				<polygon style="fill:#663535;" points="228.32,263.992 228.32,284.937 244.299,293.652 244.299,273.041 				"/>
			</g>
			<g>
				<polygon style="fill:#9C5647;" points="253.63,275.745 252.181,276.832 253.63,277.65 253.63,296.689 268.162,304.617 
					268.162,306.492 269.609,305.404 269.609,284.794 				"/>
				<polygon style="fill:#EE6251;" points="252.181,276.832 252.181,297.774 268.162,306.492 268.162,285.882 				"/>
			</g>
			<path style="fill:#9C5647;" d="M266.394,312.885l-82.871-45.562c-0.919-0.508-1.718-0.453-2.281-0.027l-0.012-0.03l-1.021,1.152
				l0.319,0.389c-0.012,0.119-0.065,0.197-0.065,0.323v8.224c0,1.919,1.379,4.241,3.066,5.162l82.86,45.18
				c0.419,0.228,0.833,0.364,1.221,0.405l0.256,0.596l1.341-1.152l-0.041-0.045c0.293-0.341,0.512-0.774,0.512-1.405v-7.862
				C269.677,316.314,268.077,313.813,266.394,312.885z"/>
			<path style="fill:#663535;" d="M179.739,270.003c0-1.919,1.378-2.734,3.06-1.807l82.87,45.562c1.684,0.927,3.06,3.252,3.06,5.175
				v7.818c0,1.919-1.379,2.737-3.065,1.818l-82.86-45.18c-1.684-0.92-3.065-3.243-3.065-5.162V270.003z"/>
			<g>
				<path style="fill:#FFFFFF;" d="M188.846,184.983l-0.043,14.883l-2.719-1.572l0.024-8.606l0.027-1.398l0.049-1.534
					c-0.448,0.28-0.782,0.419-0.939,0.484l-1.498,0.521l-1.309-2.656l4.18-1.411L188.846,184.983z"/>
			</g>
			<g>
				<path style="fill:#FFFFFF;" d="M211.797,197.387c0.802,0.464,1.516,1.053,2.138,1.749c0.624,0.692,1.091,1.449,1.446,2.272
					c0.332,0.78,0.508,1.602,0.506,2.369c-0.002,0.692-0.116,1.268-0.339,1.728c-0.203,0.499-0.516,0.935-0.965,1.29
					c-0.447,0.385-1.229,0.832-2.325,1.377L210.58,209v0.13l5.639,3.257l-0.007,2.662l-9.051-5.226l0.007-2.203l3.264-1.885
					c0.962-0.573,1.589-1.006,1.879-1.275c0.314-0.255,0.514-0.549,0.649-0.832c0.136-0.307,0.203-0.651,0.205-1.036
					c0.001-0.614-0.153-1.139-0.442-1.589c-0.266-0.461-0.646-0.808-1.135-1.091c-0.491-0.283-0.982-0.439-1.451-0.453
					c-0.491-0.027-0.982,0.074-1.497,0.265l-1.466-2.874c0.627-0.252,1.163-0.382,1.587-0.416c0.402-0.027,0.871,0.065,1.362,0.194
					C210.616,196.784,211.173,197.025,211.797,197.387z"/>
			</g>
			<g>
				<path style="fill:#FFFFFF;" d="M236.111,211.513c1.338,0.77,2.385,1.684,3.164,2.747c0.777,1.091,1.154,2.155,1.15,3.284
					c-0.002,0.921-0.25,1.575-0.741,1.934c-0.493,0.382-1.185,0.419-2.056,0.17v0.052c1.049,0.761,1.827,1.568,2.361,2.469
					c0.534,0.873,0.798,1.821,0.794,2.793c-0.003,1.435-0.452,2.277-1.369,2.546c-0.893,0.304-2.187-0.058-3.86-1.023
					c-1.405-0.812-2.651-1.79-3.719-2.946l0.007-2.687c0.489,0.59,1.046,1.142,1.648,1.668c0.602,0.528,1.18,0.965,1.782,1.312
					c0.891,0.515,1.562,0.72,2.008,0.621c0.425-0.089,0.65-0.549,0.652-1.319c0.002-0.689-0.242-1.344-0.754-1.923
					c-0.489-0.563-1.27-1.167-2.362-1.797l-0.98-0.57l0.007-2.406l1.004,0.579c1.003,0.58,1.739,0.849,2.186,0.802
					c0.469-0.014,0.716-0.409,0.718-1.125c0.003-1.128-0.621-2.052-1.847-2.759c-0.423-0.245-0.847-0.412-1.292-0.518
					c-0.447-0.078-0.938-0.078-1.475-0.003l-1.265-2.884C233.056,210.237,234.462,210.561,236.111,211.513z"/>
			</g>
			<g>
				<path style="fill:#FFFFFF;" d="M190.641,228.182l1.56,0.9l-0.007,2.434l-1.56-0.9l-0.009,3.072l-2.675-1.545l0.009-3.072
					l-5.528-3.191l0.007-2.178l5.711-6.324l2.518,1.455L190.641,228.182z M188.023,222.307c0.025-0.78,0.048-1.227,0.071-1.343
					l-0.068-0.038c-0.223,0.409-0.471,0.832-0.784,1.162l-2.396,2.745l3.121,1.804l0.007-2.509
					C187.975,223.692,187.998,223.088,188.023,222.307z"/>
			</g>
			<g>
				<path style="fill:#FFFFFF;" d="M215.882,231.384l-0.007,2.663l-4.615-2.666l-0.232,2.792l0.29,0.092
					c0.38,0.116,0.827,0.348,1.338,0.644c1.25,0.72,2.25,1.685,2.984,2.929c0.757,1.231,1.109,2.537,1.106,3.945
					c-0.005,1.668-0.455,2.691-1.349,3.072c-0.895,0.382-2.167,0.082-3.815-0.869c-1.45-0.836-2.609-1.763-3.498-2.817l0.007-2.714
					c0.469,0.553,1.024,1.105,1.626,1.633c0.624,0.539,1.226,0.989,1.759,1.296c1.673,0.965,2.522,0.661,2.527-0.9
					c0.003-1.514-0.863-2.758-2.602-3.761c-0.312-0.18-0.646-0.347-1.026-0.491c-0.379-0.139-0.691-0.245-0.914-0.296l-1.091-1.296
					l0.511-7.3L215.882,231.384z"/>
			</g>
			<g>
				<path style="fill:#FFFFFF;" d="M239.895,250.824c0.644,1.194,0.975,2.54,0.97,4.023c-0.003,1.589-0.385,2.626-1.17,3.096
					c-0.782,0.474-1.875,0.304-3.236-0.48c-0.958-0.556-1.806-1.299-2.516-2.223c-0.69-0.911-1.244-1.978-1.621-3.167
					c-0.399-1.208-0.573-2.486-0.569-3.846c0.008-2.946,0.549-4.839,1.623-5.657c1.096-0.802,2.726-0.58,4.887,0.668
					c0.737,0.423,1.294,0.798,1.716,1.146l-0.007,2.509c-0.513-0.423-1.046-0.811-1.56-1.105c-0.936-0.543-1.695-0.825-2.298-0.839
					c-0.58-0.004-1.028,0.225-1.32,0.699c-0.314,0.436-0.472,1.268-0.542,2.379l0.111,0.065c0.605-0.805,1.544-0.829,2.814-0.096
					C238.339,248.669,239.25,249.607,239.895,250.824z M237.74,255.019c0.312-0.28,0.493-0.818,0.496-1.664
					c0.002-0.717-0.153-1.371-0.441-1.972c-0.29-0.579-0.735-1.039-1.314-1.374c-0.556-0.324-1.047-0.402-1.427-0.211
					c-0.404,0.18-0.605,0.549-0.607,1.115c-0.002,0.794,0.196,1.599,0.552,2.342c0.377,0.784,0.844,1.337,1.401,1.657
					C236.98,255.247,237.427,255.274,237.74,255.019z"/>
			</g>
			<g>
				<polygon style="fill:#FFFFFF;" points="192.167,247.968 192.162,249.938 187.221,259.965 184.368,258.319 189.262,248.932 
					182.864,245.24 182.872,242.6 				"/>
			</g>
			<g>
				<path style="fill:#FFFFFF;" d="M215.461,269.328c0.421,0.887,0.621,1.718,0.617,2.485c-0.003,1.231-0.408,1.971-1.234,2.24
					c-0.849,0.252-1.942,0.007-3.302-0.781c-1.405-0.808-2.518-1.81-3.318-2.966c-0.823-1.167-1.222-2.373-1.219-3.655
					c0.003-0.842,0.206-1.47,0.609-1.906c0.382-0.42,1.007-0.648,1.878-0.661c-0.734-0.934-1.268-1.834-1.578-2.628
					c-0.333-0.781-0.488-1.538-0.484-2.281c0.001-1.05,0.383-1.701,1.166-1.916c0.758-0.205,1.762,0.041,2.99,0.75
					c1.248,0.72,2.25,1.634,3.006,2.711c0.757,1.077,1.133,2.168,1.13,3.269c-0.002,0.767-0.204,1.319-0.564,1.701
					c-0.358,0.382-0.961,0.573-1.765,0.57C214.349,267.429,215.038,268.441,215.461,269.328z M213.043,271.319
					c0.336-0.139,0.515-0.498,0.517-1.036c0.002-0.461-0.176-0.975-0.51-1.575c-0.333-0.579-0.866-1.323-1.623-2.196
					c-1.249-0.055-1.877,0.43-1.881,1.428c-0.001,0.59,0.176,1.153,0.532,1.668c0.334,0.525,0.824,0.989,1.447,1.35
					C212.194,271.343,212.708,271.458,213.043,271.319z M210.44,260.068c-0.289,0.089-0.424,0.396-0.426,0.856
					c-0.002,0.409,0.109,0.832,0.33,1.268c0.224,0.464,0.645,1.039,1.224,1.708c0.58,0.027,0.982-0.075,1.229-0.239
					c0.223-0.205,0.336-0.525,0.337-0.934c0-0.464-0.153-0.938-0.443-1.384c-0.29-0.427-0.668-0.771-1.135-1.043
					C211.11,260.043,210.732,259.952,210.44,260.068z"/>
			</g>
			<g>
				<path style="fill:#FFFFFF;" d="M240.307,275.898c0.377,1.193,0.573,2.461,0.57,3.819c-0.009,2.946-0.549,4.814-1.645,5.615
					c-1.074,0.845-2.704,0.621-4.865-0.627c-0.781-0.45-1.36-0.836-1.739-1.155l0.007-2.513c0.489,0.413,1.002,0.784,1.538,1.095
					c0.914,0.528,1.673,0.811,2.274,0.852c0.581,0.027,1.028-0.201,1.342-0.688c0.314-0.485,0.496-1.279,0.566-2.394l-0.113-0.064
					c-0.358,0.436-0.738,0.651-1.185,0.651c-0.447-0.003-1.026-0.208-1.694-0.592c-1.115-0.645-2.005-1.568-2.649-2.763
					c-0.644-1.217-0.975-2.564-0.972-4.023c0.005-1.615,0.409-2.638,1.192-3.109c0.784-0.474,1.877-0.303,3.215,0.471
					c0.958,0.551,1.804,1.299,2.516,2.223C239.377,273.617,239.931,274.681,240.307,275.898z M237.554,278.131
					c0.402-0.205,0.605-0.549,0.607-1.087c0.002-0.818-0.175-1.613-0.552-2.37c-0.355-0.771-0.844-1.334-1.401-1.657
					c-0.58-0.334-1.026-0.361-1.34-0.078c-0.314,0.252-0.471,0.805-0.474,1.65c-0.002,0.715,0.131,1.356,0.419,1.96
					c0.288,0.577,0.733,1.04,1.313,1.374C236.683,278.244,237.174,278.322,237.554,278.131z"/>
			</g>
			<g>
				<path style="fill:#FFFFFF;" d="M260.226,224.565c0.747,0.429,1.335,1.449,1.333,2.308l-0.014,4.675l4.086,2.359
					c0.728,0.419,1.316,1.459,1.313,2.294c-0.002,0.835-0.593,1.173-1.321,0.753l-4.087-2.359l-0.014,4.695
					c-0.002,0.836-0.593,1.173-1.34,0.743c-0.728-0.423-1.316-1.439-1.313-2.274l0.014-4.698l-4.088-2.359
					c-0.726-0.42-1.315-1.436-1.313-2.271c0.003-0.835,0.595-1.196,1.321-0.777l4.088,2.359l0.012-4.674
					C258.908,224.483,259.5,224.145,260.226,224.565z"/>
			</g>
			<g>
				<path style="fill:#FFFFFF;" d="M266.271,292.717c0.726,0.42,1.314,1.459,1.312,2.294c-0.003,0.836-0.595,1.173-1.321,0.754
					l-10.829-6.253c-0.726-0.42-1.314-1.435-1.311-2.271c0.002-0.836,0.593-1.196,1.32-0.777L266.271,292.717z"/>
			</g>
			<g>
				<path style="fill:#FFFFFF;" d="M264.092,257.78c0.338,0.195,0.677,0.539,0.941,0.986c0.51,0.883,0.507,1.851-0.007,2.145
					l-2.896,1.65l2.878,4.988c0.51,0.907,0.508,1.855-0.005,2.169c-0.256,0.146-0.611,0.078-0.945-0.116
					c-0.334-0.194-0.668-0.521-0.943-0.975l-2.879-4.985l-2.878,1.664c-0.276,0.133-0.611,0.075-0.945-0.116
					c-0.334-0.195-0.687-0.536-0.943-0.975c-0.508-0.903-0.506-1.852,0.007-2.169l2.898-1.65l-2.879-4.989
					c-0.51-0.879-0.507-1.851,0.005-2.144c0.268-0.139,0.607-0.092,0.944,0.106c0.34,0.194,0.678,0.535,0.943,0.985l2.861,4.975
					l2.898-1.65C263.414,257.534,263.753,257.586,264.092,257.78z"/>
			</g>
		</g>
		<g>
			<g id="paper">
				<polygon style="fill:#B2685B;" points="192.992,206.235 157.69,187.523 177.074,135.204 204.226,155.716 204.226,195.989 				
					"/>
				<path style="opacity:0.4;fill:#510F0F;" d="M217.431,125.053c0,0,4.475,67.778-8.79,74.669l-8.655-83.062L217.431,125.053z"/>
				<path style="fill:#B2685B;" d="M225.093,87.958c0,0,2.409,1.562,2.409,6.216v36.949l-21.967-12.383l-1.308-30.092l11.637-4.658
					L225.093,87.958z"/>
				<path style="opacity:0.4;fill:#510F0F;" d="M182.622,157.853v145.488c-7.996-4.923-14.281-15.817-14.281-25.037V150.21
					L182.622,157.853z"/>
				<path style="fill:#EDB28A;" d="M224.518,87.573c-1.328-0.661-3.143-0.521-5.169,0.63c-4.085,2.373-7.401,8.098-7.401,12.847
					l0.174,59.879l-0.174,1.152c0.14,3.072,0.21,5.899,0.21,8.483v0.382c0.034,1.746,0.034,3.39,0,4.961v1.08
					c-0.245,16.338-2.375,20.529-3.351,21.575c-3.038,4.436-8.345,6.881-8.345,6.881v-0.038c-6.425,3.631-8.135-1.047-8.589-3.212
					c-0.106-0.593-0.14-1.013-0.14-1.013v-39.1h-0.036l-1.43-0.805c-0.595-3.038-2.934-4.329-5.9-3.246l-22.38-12.359
					c-0.21,4.607-3.422,10.054-7.402,12.322c-4.085,2.377-7.436,0.457-7.436-4.259l-0.07-18.922v-1.746
					c0.034-1.361,0.034-2.793,0-4.293v-1.33l-0.036-8.691v-0.873l-0.174-59.005c0-4.75,3.317-10.474,7.402-12.847
					c2.303-1.327,4.364-1.327,5.725-0.245c0.105,0.071,0.175,0.174,0.245,0.245L224.518,87.573z"/>
				<path style="fill:#FBC49E;" d="M191.874,198.426l-0.125-28.316l-0.034-8.03h0.034c0-0.139-0.034-0.279-0.07-0.453v-0.246
					c-0.244-2.199-1.081-4.435-3.352-6.042l-2.093-1.115c-0.036-0.033-0.106-0.033-0.14-0.071l-39-21.088l-9.252-4.992
					l-19.412-10.928h-0.034c-0.489-0.28-1.082-0.454-1.711-0.487h-0.174c-1.013,0-2.13,0.276-3.352,0.974
					c-4.085,2.377-7.402,8.101-7.402,12.851l0.28,94.86c0,0.661,0.104,1.255,0.209,1.814c0.559,18.923,0.697,77.195-17.527,87.423
					l70.7,40.151c0,0,14.908-1.326,16.165-30.583V171.509c0-4.75,3.317-10.474,7.402-12.851c0.49-0.279,0.943-0.487,1.396-0.627
					c2.968-1.083,5.307,0.208,5.9,3.246c0.106,0.491,0.176,1.047,0.176,1.644l0.104,38.578c0,0-0.269,6.455,6.715,5.155
					C190.84,207.118,191.874,198.426,191.874,198.426z"/>
				<path style="fill:#B2685B;" d="M188.312,155.341l-41.233-22.274c0.034-1.361,0.034-2.793,0-4.293v-1.33L188.312,155.341z"/>
			</g>
			<g>
				<path style="fill:#B2685B;" d="M133.475,225.253c-1.478,1.354-3.665,1.194-6.519-0.453c-2.764-1.596-4.879-3.945-6.366-7.089
					c-1.487-3.115-2.235-6.833-2.223-11.107c0.024-8.763,2.912-11.456,8.664-8.136c2.808,1.623,4.968,3.996,6.454,7.14
					c1.51,3.126,2.259,6.795,2.247,11.02C135.719,221.008,134.951,223.872,133.475,225.253z M125.217,216.047
					c0.375,1.422,0.975,2.359,1.8,2.834c1.606,0.927,2.392-1.03,2.405-5.844c0.014-4.791-0.76-7.624-2.364-8.551
					c-0.825-0.474-1.429-0.232-1.81,0.727c-0.382,0.958-0.566,2.649-0.573,5.083C124.668,212.73,124.842,214.626,125.217,216.047z
					 M126.576,240.821l5.996,3.46l20.36-30.27l-5.998-3.464L126.576,240.821z M159.006,237.122c1.51,3.127,2.237,6.778,2.225,11.006
					c-0.013,4.382-0.757,7.235-2.235,8.588c-1.5,1.364-3.665,1.217-6.541-0.443c-2.741-1.582-4.857-3.932-6.344-7.075
					c-1.487-3.116-2.235-6.833-2.223-11.085c0.024-8.759,2.912-11.452,8.642-8.145C155.361,231.602,157.497,233.964,159.006,237.122
					z M152.538,250.395c1.582,0.914,2.392-1.03,2.406-5.845c0.014-4.79-0.783-7.637-2.365-8.551
					c-0.847-0.487-1.451-0.245-1.833,0.713c-0.36,0.972-0.566,2.65-0.573,5.083c-0.007,2.431,0.189,4.341,0.542,5.752
					C151.091,248.969,151.691,249.907,152.538,250.395z"/>
				<g>
					<g>
						<path style="fill:#FFFFFF;" d="M165.429,185.901c0.692,0.398,1.246,1.36,1.245,2.155c-0.001,0.767-0.561,1.087-1.253,0.688
							l-49.53-28.595c-0.668-0.389-1.225-1.35-1.223-2.118c0.004-0.794,0.563-1.115,1.231-0.726L165.429,185.901z"/>
					</g>
					<g>
						<path style="fill:#FFFFFF;" d="M165.458,175.678c0.692,0.403,1.246,1.364,1.244,2.159c-0.002,0.768-0.561,1.084-1.253,0.686
							l-49.53-28.596c-0.668-0.385-1.224-1.347-1.222-2.117c0.003-0.795,0.562-1.112,1.23-0.727L165.458,175.678z"/>
					</g>
					<g>
						<path style="fill:#FFFFFF;" d="M165.4,196.119c0.692,0.398,1.246,1.364,1.245,2.131c-0.002,0.795-0.561,1.112-1.252,0.713
							l-49.532-28.595c-0.668-0.386-1.224-1.347-1.222-2.141c0.004-0.771,0.563-1.088,1.231-0.703L165.4,196.119z"/>
					</g>
					<g>
						<path style="fill:#FFFFFF;" d="M165.487,165.46c0.692,0.398,1.246,1.361,1.245,2.155c-0.002,0.794-0.561,1.111-1.253,0.712
							l-49.531-28.595c-0.668-0.386-1.224-1.346-1.222-2.141c0.003-0.795,0.563-1.115,1.231-0.727L165.487,165.46z"/>
					</g>
					<g>
						<path style="fill:#FFFFFF;" d="M165.371,206.34c0.692,0.399,1.248,1.337,1.245,2.128c-0.002,0.795-0.561,1.115-1.251,0.716
							l-49.532-28.596c-0.668-0.388-1.224-1.35-1.222-2.144c0.003-0.794,0.563-1.088,1.231-0.699L165.371,206.34z"/>
					</g>
				</g>
				<g>
					<g>
						<path style="fill:#FFFFFF;" d="M165.429,293.372c0.692,0.398,1.246,1.361,1.245,2.155c-0.001,0.767-0.561,1.088-1.253,0.689
							l-49.53-28.599c-0.668-0.386-1.225-1.346-1.223-2.114c0.004-0.795,0.563-1.115,1.231-0.73L165.429,293.372z"/>
					</g>
					<g>
						<path style="fill:#FFFFFF;" d="M165.458,283.15c0.692,0.399,1.246,1.36,1.244,2.155c-0.002,0.771-0.561,1.087-1.253,0.689
							l-49.53-28.596c-0.668-0.385-1.224-1.35-1.222-2.117c0.003-0.794,0.562-1.112,1.23-0.726L165.458,283.15z"/>
					</g>
					<g>
						<path style="fill:#FFFFFF;" d="M165.4,303.59c0.692,0.399,1.246,1.361,1.245,2.131c-0.002,0.795-0.561,1.111-1.252,0.713
							l-49.532-28.596c-0.668-0.385-1.224-1.35-1.222-2.141c0.004-0.77,0.563-1.088,1.231-0.702L165.4,303.59z"/>
					</g>
					<g>
						<path style="fill:#FFFFFF;" d="M165.487,272.931c0.692,0.399,1.246,1.361,1.245,2.155c-0.002,0.795-0.561,1.112-1.253,0.713
							l-49.531-28.595c-0.668-0.386-1.224-1.35-1.222-2.145c0.003-0.791,0.563-1.112,1.231-0.727L165.487,272.931z"/>
					</g>
					<g>
						<path style="fill:#FFFFFF;" d="M165.371,313.813c0.692,0.398,1.248,1.333,1.245,2.128c-0.002,0.794-0.561,1.115-1.251,0.715
							l-49.532-28.599c-0.668-0.385-1.224-1.346-1.222-2.141c0.003-0.794,0.563-1.087,1.231-0.702L165.371,313.813z"/>
					</g>
				</g>
			</g>
		</g>
	</g>
	<g>
		<path style="fill:#E2A827;" d="M346.356,356.65v-8.728h-4.69c-0.944-0.802-2.017-1.565-3.247-2.278
			c-10.525-6.077-27.541-6.077-37.996,0c-1.222,0.712-2.288,1.476-3.222,2.278h-4.587v8.731c0.023,3.982,2.671,7.962,7.934,10.999
			c10.534,6.083,27.539,6.086,38.005,0.007C343.78,364.617,346.382,360.635,346.356,356.65z"/>
		<path style="fill:#F9D075;" d="M338.419,336.915c10.534,6.083,10.588,15.939,0.133,22.015
			c-10.465,6.083-27.471,6.076-38.005-0.007c-10.525-6.076-10.59-15.926-0.124-22.008
			C310.878,330.839,327.893,330.839,338.419,336.915z"/>
		<path style="fill:#E2A827;" d="M319.583,358.251c-6.183,0-12.167-1.408-16.419-3.863c-3.374-1.95-5.311-4.323-5.314-6.516
			c-0.004-2.161,1.894-4.507,5.204-6.43c4.207-2.445,10.162-3.846,16.339-3.846c6.181,0,12.162,1.405,16.405,3.852
			c3.377,1.95,5.317,4.331,5.32,6.527c0.001,2.161-1.892,4.504-5.2,6.427C331.71,356.847,325.756,358.251,319.583,358.251z"/>
		<g>
			<path style="fill:#F9D075;" d="M325.22,352.261c-0.232,0.525-0.723,0.992-1.468,1.425c-1.355,0.787-2.928,1.152-4.72,1.05
				c-1.812-0.092-3.688-0.607-5.641-1.527l-2.612,1.514l-1.758-1.013l2.571-1.496c-2.054-1.231-3.519-2.51-4.412-3.819l3.375-1.964
				c0.379,0.651,0.933,1.357,1.725,2.134c0.772,0.764,1.524,1.402,2.315,1.903l3.965-2.301l-0.556-0.686
				c-1.032-1.371-1.51-2.486-1.417-3.341c0.073-0.869,0.68-1.633,1.819-2.295c1.236-0.719,2.731-1.036,4.524-0.934
				c1.753,0.102,3.607,0.603,5.503,1.517l1.962-1.143l1.759,1.017l-1.904,1.108c1.877,1.173,3.263,2.428,4.156,3.764L330.2,348.2
				c-0.774-1.083-1.823-2.076-3.108-2.956l-3.77,2.192c1.031,1.344,1.668,2.349,1.908,3.031
				C325.45,351.143,325.474,351.746,325.22,352.261z M316.434,351.44c1.362,0.559,2.463,0.603,3.27,0.136
				c0.353-0.204,0.508-0.477,0.448-0.788c-0.022-0.307-0.201-0.706-0.539-1.197L316.434,351.44z M322.271,346.008l3.004-1.746
				c-1.263-0.546-2.269-0.604-2.996-0.181c-0.373,0.215-0.568,0.467-0.527,0.764C321.773,345.132,321.934,345.517,322.271,346.008z"
				/>
		</g>
	</g>
	<g>
		<path style="fill:#E2A827;" d="M361.279,336.721v-8.728h-4.69c-0.943-0.801-2.017-1.568-3.248-2.277
			c-10.524-6.076-27.539-6.076-37.996,0c-1.223,0.713-2.286,1.477-3.222,2.277h-4.586v8.732c0.024,3.979,2.671,7.961,7.932,10.998
			c10.534,6.083,27.54,6.086,38.004,0.008C358.705,344.689,361.305,340.707,361.279,336.721z"/>
		<path style="fill:#F9D075;" d="M353.342,316.986c10.533,6.083,10.59,15.939,0.133,22.016c-10.464,6.079-27.471,6.075-38.004-0.008
			c-10.524-6.075-10.588-15.926-0.125-22.008C325.803,310.911,342.818,310.911,353.342,316.986z"/>
		<path style="fill:#E2A827;" d="M334.508,338.323c-6.183,0-12.167-1.408-16.419-3.863c-3.374-1.95-5.31-4.323-5.314-6.516
			c-0.003-2.162,1.894-4.507,5.205-6.43c4.207-2.445,10.162-3.846,16.339-3.846c6.181,0,12.161,1.405,16.405,3.853
			c3.377,1.95,5.317,4.33,5.321,6.526c0.001,2.162-1.893,4.504-5.2,6.427C346.636,336.918,340.681,338.323,334.508,338.323z"/>
		<g>
			<path style="fill:#F9D075;" d="M340.145,332.333c-0.233,0.524-0.723,0.992-1.469,1.424c-1.354,0.788-2.927,1.153-4.721,1.05
				c-1.812-0.092-3.686-0.606-5.641-1.53l-2.61,1.517l-1.759-1.012l2.573-1.497c-2.056-1.23-3.521-2.509-4.414-3.819l3.377-1.964
				c0.377,0.652,0.932,1.358,1.723,2.135c0.774,0.764,1.526,1.401,2.316,1.902l3.964-2.301l-0.554-0.686
				c-1.033-1.37-1.512-2.485-1.418-3.341c0.075-0.869,0.68-1.633,1.819-2.294c1.238-0.72,2.731-1.037,4.525-0.934
				c1.753,0.102,3.607,0.604,5.503,1.518l1.964-1.143l1.757,1.016l-1.904,1.105c1.877,1.177,3.263,2.431,4.156,3.768l-4.207,1.026
				c-0.774-1.084-1.824-2.076-3.109-2.956l-3.769,2.19c1.033,1.346,1.669,2.352,1.909,3.034
				C340.376,331.215,340.398,331.818,340.145,332.333z M331.357,331.511c1.362,0.559,2.465,0.604,3.27,0.136
				c0.353-0.205,0.51-0.481,0.448-0.787c-0.02-0.308-0.201-0.706-0.539-1.197L331.357,331.511z M337.197,326.079l3.002-1.746
				c-1.263-0.546-2.267-0.603-2.993-0.18c-0.374,0.215-0.569,0.467-0.529,0.764C336.699,325.203,336.858,325.588,337.197,326.079z"
				/>
		</g>
	</g>
	<g>
		<path style="fill:#E2A827;" d="M353.864,326.387v-8.728h-4.688c-0.944-0.802-2.018-1.565-3.249-2.277
			c-10.523-6.077-27.539-6.077-37.996,0c-1.221,0.712-2.286,1.476-3.222,2.277h-4.586v8.732c0.024,3.982,2.672,7.962,7.932,10.999
			c10.534,6.083,27.541,6.089,38.005,0.007C351.289,334.358,353.889,330.372,353.864,326.387z"/>
		<path style="fill:#F9D075;" d="M345.926,306.652c10.534,6.083,10.59,15.939,0.133,22.015c-10.464,6.082-27.47,6.076-38.005-0.007
			c-10.523-6.076-10.588-15.926-0.124-22.008C318.388,300.576,335.403,300.576,345.926,306.652z"/>
		<path style="fill:#E2A827;" d="M327.092,327.989c-6.184,0-12.167-1.408-16.419-3.863c-3.373-1.95-5.31-4.323-5.313-6.516
			c-0.003-2.161,1.894-4.507,5.204-6.43c4.207-2.445,10.162-3.846,16.339-3.846c6.182,0,12.162,1.405,16.405,3.852
			c3.377,1.95,5.317,4.331,5.32,6.527c0.002,2.161-1.892,4.504-5.199,6.427C339.22,326.584,333.265,327.989,327.092,327.989z"/>
		<g>
			<path style="fill:#F9D075;" d="M332.73,321.998c-0.234,0.525-0.723,0.992-1.47,1.425c-1.353,0.787-2.927,1.152-4.72,1.05
				c-1.812-0.092-3.686-0.604-5.641-1.527l-2.61,1.518l-1.759-1.017l2.572-1.493c-2.056-1.235-3.52-2.509-4.413-3.822l3.377-1.964
				c0.377,0.651,0.933,1.36,1.725,2.134c0.772,0.764,1.524,1.405,2.315,1.906l3.963-2.305l-0.554-0.686
				c-1.033-1.368-1.512-2.486-1.418-3.341c0.075-0.866,0.68-1.633,1.819-2.295c1.238-0.715,2.733-1.036,4.524-0.934
				c1.753,0.102,3.607,0.603,5.503,1.517l1.964-1.143l1.758,1.017l-1.904,1.108c1.877,1.173,3.263,2.428,4.158,3.764l-4.209,1.026
				c-0.774-1.083-1.824-2.076-3.109-2.956l-3.767,2.192c1.031,1.347,1.667,2.35,1.908,3.035
				C332.96,320.88,332.982,321.483,332.73,321.998z M323.942,321.177c1.362,0.559,2.465,0.603,3.27,0.136
				c0.353-0.204,0.51-0.477,0.448-0.788c-0.02-0.307-0.201-0.706-0.539-1.197L323.942,321.177z M329.78,315.749l3.002-1.746
				c-1.263-0.549-2.267-0.608-2.993-0.185c-0.373,0.218-0.569,0.467-0.529,0.764C329.283,314.869,329.443,315.258,329.78,315.749z"
				/>
		</g>
	</g>
	<g>
		<path style="fill:#E2A827;" d="M346.346,312.568v-8.728h-4.69c-0.945-0.801-2.017-1.568-3.248-2.278
			c-10.524-6.076-27.539-6.076-37.996,0c-1.222,0.713-2.286,1.477-3.222,2.278h-4.586v8.732c0.024,3.982,2.671,7.961,7.932,10.998
			c10.534,6.083,27.538,6.09,38.004,0.008C343.772,320.536,346.371,316.554,346.346,312.568z"/>
		<path style="fill:#F9D075;" d="M338.408,292.833c10.534,6.083,10.59,15.939,0.133,22.016c-10.464,6.083-27.47,6.075-38.004-0.008
			c-10.524-6.075-10.59-15.926-0.125-22.008C310.87,286.758,327.885,286.758,338.408,292.833z"/>
		<path style="fill:#E2A827;" d="M319.574,314.17c-6.183,0-12.167-1.408-16.418-3.863c-3.374-1.95-5.311-4.323-5.314-6.516
			c-0.003-2.162,1.894-4.507,5.205-6.43c4.207-2.445,10.162-3.846,16.339-3.846c6.181,0,12.161,1.405,16.405,3.853
			c3.377,1.95,5.317,4.33,5.321,6.526c0.001,2.162-1.893,4.504-5.2,6.427C331.702,312.765,325.747,314.17,319.574,314.17z"/>
		<g>
			<path style="fill:#F9D075;" d="M325.212,308.18c-0.233,0.524-0.723,0.992-1.469,1.424c-1.354,0.788-2.927,1.153-4.721,1.05
				c-1.812-0.092-3.686-0.603-5.641-1.531l-2.61,1.521l-1.759-1.016l2.573-1.497c-2.056-1.23-3.521-2.509-4.414-3.819l3.375-1.964
				c0.379,0.652,0.934,1.358,1.727,2.135c0.772,0.764,1.524,1.401,2.313,1.906l3.965-2.305l-0.556-0.686
				c-1.031-1.367-1.51-2.485-1.417-3.341c0.075-0.869,0.68-1.633,1.819-2.294c1.236-0.72,2.731-1.036,4.524-0.934
				c1.753,0.102,3.607,0.604,5.503,1.518l1.962-1.143l1.759,1.016l-1.904,1.108c1.877,1.173,3.263,2.428,4.156,3.764l-4.207,1.026
				c-0.774-1.084-1.824-2.076-3.11-2.956l-3.769,2.193c1.033,1.343,1.669,2.349,1.907,3.034
				C325.442,307.062,325.464,307.665,325.212,308.18z M316.424,307.358c1.362,0.559,2.465,0.604,3.27,0.136
				c0.353-0.205,0.51-0.477,0.449-0.787c-0.022-0.308-0.202-0.706-0.539-1.197L316.424,307.358z M322.263,301.926l3.002-1.742
				c-1.263-0.549-2.267-0.607-2.993-0.184c-0.374,0.218-0.569,0.467-0.529,0.764C321.765,301.05,321.923,301.439,322.263,301.926z"
				/>
		</g>
	</g>
	<g>
		<path style="fill:#E2A827;" d="M280.472,389.432v-8.728h-4.69c-0.944-0.801-2.017-1.568-3.248-2.278
			c-10.523-6.076-27.54-6.076-37.996,0c-1.222,0.713-2.286,1.477-3.222,2.278h-4.588v8.732c0.024,3.982,2.672,7.961,7.934,10.998
			c10.534,6.083,27.539,6.09,38.005,0.008C277.898,397.401,280.497,393.418,280.472,389.432z"/>
		<path style="fill:#F9D075;" d="M272.534,369.698c10.534,6.083,10.589,15.939,0.133,22.016
			c-10.466,6.083-27.471,6.075-38.005-0.008c-10.525-6.075-10.59-15.926-0.125-22.008
			C244.994,363.622,262.011,363.622,272.534,369.698z"/>
		<path style="fill:#E2A827;" d="M253.7,391.034c-6.183,0-12.168-1.408-16.42-3.863c-3.374-1.95-5.31-4.323-5.312-6.516
			c-0.005-2.162,1.893-4.508,5.203-6.43c4.209-2.445,10.162-3.846,16.34-3.846c6.18,0,12.162,1.405,16.403,3.853
			c3.377,1.95,5.319,4.33,5.32,6.526c0.002,2.162-1.892,4.504-5.198,6.427C265.826,389.63,259.871,391.034,253.7,391.034z"/>
		<g>
			<path style="fill:#F9D075;" d="M259.338,385.044c-0.233,0.524-0.724,0.992-1.469,1.424c-1.355,0.788-2.929,1.153-4.721,1.05
				c-1.812-0.092-3.685-0.603-5.641-1.531l-2.612,1.521l-1.758-1.016l2.571-1.497c-2.054-1.23-3.519-2.509-4.412-3.819l3.376-1.964
				c0.379,0.652,0.934,1.358,1.725,2.135c0.772,0.764,1.524,1.401,2.315,1.906l3.965-2.305l-0.555-0.686
				c-1.032-1.367-1.511-2.485-1.417-3.341c0.075-0.869,0.68-1.633,1.819-2.294c1.236-0.72,2.731-1.036,4.524-0.934
				c1.752,0.102,3.607,0.604,5.503,1.518l1.962-1.143l1.759,1.016l-1.904,1.108c1.877,1.173,3.263,2.428,4.156,3.764l-4.209,1.026
				c-0.774-1.084-1.822-2.076-3.108-2.956l-3.769,2.193c1.032,1.343,1.667,2.349,1.907,3.031
				C259.568,383.926,259.59,384.529,259.338,385.044z M250.55,384.222c1.362,0.559,2.465,0.604,3.27,0.136
				c0.353-0.204,0.51-0.477,0.448-0.787c-0.022-0.308-0.201-0.706-0.539-1.197L250.55,384.222z M256.387,378.791l3.004-1.742
				c-1.263-0.549-2.268-0.607-2.995-0.184c-0.372,0.218-0.568,0.467-0.527,0.764C255.891,377.915,256.05,378.303,256.387,378.791z"
				/>
		</g>
	</g>
	<g>
		<path style="fill:#E2A827;" d="M295.061,372.453v-8.728h-4.69c-0.944-0.801-2.017-1.565-3.247-2.278
			c-10.524-6.076-27.539-6.076-37.996,0c-1.223,0.713-2.286,1.477-3.222,2.278h-4.587v8.732c0.025,3.982,2.673,7.961,7.934,10.998
			c10.534,6.083,27.539,6.09,38.004,0.008C292.487,380.424,295.087,376.439,295.061,372.453z"/>
		<path style="fill:#F9D075;" d="M287.124,352.718c10.534,6.083,10.59,15.939,0.133,22.016c-10.465,6.083-27.47,6.075-38.004-0.008
			c-10.525-6.075-10.59-15.926-0.124-22.008C259.583,346.642,276.6,346.642,287.124,352.718z"/>
		<path style="fill:#E2A827;" d="M268.288,374.055c-6.183,0-12.165-1.408-16.417-3.863c-3.374-1.95-5.311-4.323-5.316-6.516
			c-0.003-2.162,1.896-4.507,5.205-6.43c4.209-2.445,10.163-3.846,16.338-3.846c6.181,0,12.161,1.405,16.407,3.853
			c3.375,1.95,5.317,4.33,5.32,6.526c0.001,2.162-1.892,4.504-5.202,6.427C280.417,372.65,274.463,374.055,268.288,374.055z"/>
		<g>
			<path style="fill:#F9D075;" d="M273.927,368.065c-0.234,0.524-0.725,0.992-1.47,1.424c-1.354,0.788-2.927,1.153-4.72,1.05
				c-1.812-0.092-3.686-0.603-5.641-1.527l-2.61,1.518l-1.759-1.016l2.572-1.493c-2.056-1.234-3.52-2.509-4.413-3.822l3.375-1.964
				c0.378,0.652,0.934,1.361,1.725,2.135c0.772,0.764,1.524,1.401,2.315,1.906l3.966-2.305l-0.556-0.686
				c-1.031-1.367-1.51-2.485-1.417-3.341c0.075-0.865,0.68-1.633,1.819-2.294c1.236-0.716,2.731-1.037,4.525-0.934
				c1.753,0.102,3.607,0.604,5.503,1.518l1.962-1.143l1.759,1.016l-1.904,1.109c1.877,1.173,3.263,2.428,4.157,3.764l-4.209,1.026
				c-0.774-1.084-1.822-2.076-3.107-2.957l-3.769,2.193c1.031,1.347,1.667,2.349,1.908,3.034
				C274.157,366.947,274.18,367.55,273.927,368.065z M265.139,367.243c1.362,0.559,2.465,0.604,3.269,0.136
				c0.353-0.205,0.51-0.477,0.449-0.787c-0.022-0.308-0.201-0.706-0.539-1.197L265.139,367.243z M270.977,361.815l3.003-1.746
				c-1.263-0.549-2.267-0.607-2.994-0.184c-0.373,0.218-0.569,0.467-0.528,0.764C270.48,360.935,270.639,361.324,270.977,361.815z"
				/>
		</g>
	</g>
	<g>
		<path style="fill:#E2A827;" d="M239.072,353.898v-8.728h-4.69c-0.944-0.802-2.018-1.568-3.249-2.278
			c-10.524-6.076-27.539-6.076-37.996,0c-1.221,0.709-2.286,1.476-3.221,2.278h-4.587v8.728c0.023,3.982,2.671,7.965,7.932,11.003
			c10.534,6.083,27.541,6.086,38.006,0.003C236.496,361.866,239.096,357.88,239.072,353.898z"/>
		<path style="fill:#F9D075;" d="M231.133,334.164c10.534,6.083,10.59,15.936,0.134,22.012c-10.465,6.083-27.472,6.08-38.006-0.003
			c-10.523-6.076-10.589-15.926-0.123-22.009C203.594,328.088,220.609,328.088,231.133,334.164z"/>
		<path style="fill:#E2A827;" d="M212.299,355.5c-6.183,0-12.167-1.409-16.419-3.863c-3.374-1.95-5.311-4.323-5.313-6.515
			c-0.004-2.162,1.894-4.507,5.204-6.43c4.207-2.444,10.162-3.846,16.339-3.846c6.182,0,12.162,1.405,16.405,3.853
			c3.377,1.95,5.317,4.33,5.32,6.526c0.001,2.162-1.892,4.504-5.2,6.427C224.426,354.096,218.471,355.5,212.299,355.5z"/>
		<g>
			<path style="fill:#F9D075;" d="M217.936,349.507c-0.234,0.525-0.723,0.996-1.469,1.429c-1.354,0.787-2.927,1.152-4.72,1.046
				c-1.812-0.089-3.686-0.604-5.641-1.527l-2.61,1.518l-1.758-1.017l2.571-1.493c-2.056-1.231-3.52-2.509-4.413-3.822l3.377-1.96
				c0.376,0.651,0.933,1.356,1.725,2.131c0.772,0.767,1.524,1.405,2.315,1.906l3.965-2.305l-0.556-0.682
				c-1.032-1.371-1.51-2.49-1.417-3.345c0.073-0.866,0.68-1.63,1.817-2.291c1.238-0.719,2.733-1.04,4.525-0.937
				c1.754,0.105,3.607,0.606,5.503,1.517l1.964-1.139l1.757,1.016l-1.904,1.105c1.879,1.176,3.263,2.431,4.158,3.764l-4.209,1.026
				c-0.774-1.081-1.824-2.076-3.108-2.952l-3.77,2.188c1.032,1.347,1.668,2.35,1.908,3.035
				C218.166,348.391,218.19,348.995,217.936,349.507z M209.148,348.688c1.362,0.559,2.465,0.603,3.269,0.136
				c0.355-0.205,0.51-0.48,0.449-0.788c-0.02-0.306-0.199-0.709-0.537-1.196L209.148,348.688z M214.987,343.257l3.004-1.746
				c-1.265-0.546-2.269-0.604-2.995-0.181c-0.373,0.214-0.567,0.467-0.527,0.764C214.489,342.377,214.649,342.766,214.987,343.257z"
				/>
		</g>
	</g>
</g>
</svg>
